<svg width="50" height="50" viewBox="0 0 50 50" fill="none" xmlns="http://www.w3.org/2000/svg">
<path d="M8.3335 8.33317C8.3335 7.2281 8.77248 6.16829 9.55388 5.38689C10.3353 4.60549 11.3951 4.1665 12.5002 4.1665H29.1668C29.7193 4.16662 30.2491 4.38619 30.6397 4.77692L41.0564 15.1936C41.4471 15.5842 41.6667 16.114 41.6668 16.6665V41.6665C41.6668 42.7716 41.2278 43.8314 40.4464 44.6128C39.665 45.3942 38.6052 45.8332 37.5002 45.8332H12.5002C11.3951 45.8332 10.3353 45.3942 9.55388 44.6128C8.77248 43.8314 8.3335 42.7716 8.3335 41.6665V8.33317ZM36.6377 16.6665L29.1668 9.19567V16.6665H36.6377ZM25.0002 8.33317H12.5002V41.6665H37.5002V20.8332H27.0835C26.531 20.8332 26.0011 20.6137 25.6104 20.223C25.2197 19.8323 25.0002 19.3024 25.0002 18.7498V8.33317ZM16.6668 27.0832C16.6668 26.5306 16.8863 26.0007 17.277 25.61C17.6677 25.2193 18.1976 24.9998 18.7502 24.9998H31.2502C31.8027 24.9998 32.3326 25.2193 32.7233 25.61C33.114 26.0007 33.3335 26.5306 33.3335 27.0832C33.3335 27.6357 33.114 28.1656 32.7233 28.5563C32.3326 28.947 31.8027 29.1665 31.2502 29.1665H18.7502C18.1976 29.1665 17.6677 28.947 17.277 28.5563C16.8863 28.1656 16.6668 27.6357 16.6668 27.0832ZM16.6668 35.4165C16.6668 34.864 16.8863 34.3341 17.277 33.9434C17.6677 33.5527 18.1976 33.3332 18.7502 33.3332H31.2502C31.8027 33.3332 32.3326 33.5527 32.7233 33.9434C33.114 34.3341 33.3335 34.864 33.3335 35.4165C33.3335 35.969 33.114 36.4989 32.7233 36.8896C32.3326 37.2803 31.8027 37.4998 31.2502 37.4998H18.7502C18.1976 37.4998 17.6677 37.2803 17.277 36.8896C16.8863 36.4989 16.6668 35.969 16.6668 35.4165Z" fill="#EEEEEE"/>
</svg>
