<svg width="50" height="50" viewBox="0 0 50 50" fill="none" xmlns="http://www.w3.org/2000/svg">
<g clip-path="url(#clip0_435_2843)">
<path d="M49.9971 47.3309C49.9971 48.0387 49.7044 48.7178 49.1833 49.2181C48.6626 49.7188 47.9559 50 47.2192 50H2.77484C2.03814 50 1.33159 49.7188 0.810662 49.2181C0.289729 48.7178 -0.00292902 48.0387 -0.00292902 47.3309V19.2799C-0.00322174 18.8732 0.0932274 18.4718 0.279058 18.1064C0.464889 17.741 0.735181 17.4212 1.06929 17.1714L23.2915 0.562341C23.7791 0.197877 24.3793 0 24.997 0C25.6148 0 26.215 0.197877 26.7026 0.562341L48.9248 17.1714C49.2588 17.4212 49.5291 17.741 49.7151 18.1064C49.9008 18.4718 49.9974 18.8732 49.9971 19.2799V47.3309ZM44.4414 44.6619V20.5824L24.997 6.05244L5.55263 20.5824V44.6619H44.4414Z" fill="#EEEEEE"/>
</g>
<defs>
<clipPath id="clip0_435_2843">
<rect width="50" height="50" fill="white" transform="translate(-0.00292969)"/>
</clipPath>
</defs>
</svg>
