<svg width="50" height="50" viewBox="0 0 50 50" fill="none" xmlns="http://www.w3.org/2000/svg">
<g clip-path="url(#clip0_264_1151)">
<path fill-rule="evenodd" clip-rule="evenodd" d="M25 45.3125C25.7188 45.3125 27.6344 44.6063 29.6469 40.5813C30.6031 38.6688 31.4063 36.3 31.9656 33.5938H18.0344C18.5937 36.3 19.3969 38.6688 20.3531 40.5813C22.3656 44.6063 24.2812 45.3125 25 45.3125ZM17.3562 28.9062C17.1298 26.307 17.1298 23.693 17.3562 21.0938H32.6438C32.8687 23.6931 32.8687 26.3069 32.6438 28.9062H17.3562ZM36.7406 33.5938C36.0406 37.4187 34.8875 40.8063 33.4094 43.4938C37.8111 41.4838 41.3553 37.975 43.4094 33.5938H36.7406ZM44.9375 28.9062H37.3437C37.5475 26.3061 37.5475 23.6939 37.3437 21.0938H44.9344C45.4399 23.6734 45.4399 26.3266 44.9344 28.9062H44.9375ZM12.6531 28.9062H5.0625C4.55698 26.3266 4.55698 23.6734 5.0625 21.0938H12.6563C12.4525 23.6939 12.4525 26.3061 12.6563 28.9062H12.6531ZM6.59062 33.5938H13.2594C13.9594 37.4187 15.1125 40.8063 16.5906 43.4938C12.1889 41.4838 8.64474 37.975 6.59062 33.5938ZM18.0344 16.4062H31.9656C31.4063 13.7 30.6031 11.3312 29.6469 9.41875C27.6344 5.39375 25.7188 4.6875 25 4.6875C24.2812 4.6875 22.3656 5.39375 20.3531 9.41875C19.3969 11.3312 18.5937 13.7 18.0344 16.4062ZM36.7406 16.4062H43.4094C41.3553 12.025 37.8111 8.51623 33.4094 6.50625C34.8875 9.19375 36.0406 12.5813 36.7406 16.4062ZM16.5937 6.50625C15.1156 9.19375 13.9625 12.5813 13.2625 16.4062H6.59062C8.64474 12.025 12.1921 8.51623 16.5937 6.50625ZM25 0C31.6304 0 37.9893 2.63392 42.6777 7.32233C47.3661 12.0107 50 18.3696 50 25C50 31.6304 47.3661 37.9893 42.6777 42.6777C37.9893 47.3661 31.6304 50 25 50C18.3696 50 12.0107 47.3661 7.32233 42.6777C2.63392 37.9893 0 31.6304 0 25C0 18.3696 2.63392 12.0107 7.32233 7.32233C12.0107 2.63392 18.3696 0 25 0Z" fill="white"/>
</g>
<defs>
<clipPath id="clip0_264_1151">
<rect width="50" height="50" fill="white"/>
</clipPath>
</defs>
</svg>
