<svg width="17" height="16" viewBox="0 0 17 16" fill="none" xmlns="http://www.w3.org/2000/svg">
    <path d="M16.2121 6.96893L9.4832 0.232044C9.40844 0.157889 9.31977 0.0992211 9.22229 0.0594042C9.12481 0.0195873 9.02042 -0.000595421 8.91513 1.33732e-05H1.71418C1.50198 1.33732e-05 1.29847 0.0843099 1.14842 0.234359C0.998372 0.384407 0.914076 0.587917 0.914076 0.800118V8.00106C0.913467 8.10636 0.93365 8.21075 0.973467 8.30823C1.01328 8.40571 1.07195 8.49438 1.14611 8.56914L7.88299 15.298C8.33305 15.7475 8.94313 16 9.57921 16C10.2153 16 10.8254 15.7475 11.2754 15.298L16.2121 10.4014C16.6616 9.95132 16.9141 9.34124 16.9141 8.70516C16.9141 8.06907 16.6616 7.45899 16.2121 7.00893V6.96893ZM15.0839 9.22522L10.1393 14.1619C9.98938 14.3109 9.78659 14.3945 9.57521 14.3945C9.36384 14.3945 9.16105 14.3109 9.01114 14.1619L2.51429 7.67302V1.60022H8.58708L15.0839 8.09708C15.1581 8.17184 15.2168 8.2605 15.2566 8.35798C15.2964 8.45547 15.3166 8.55985 15.316 8.66515C15.3151 8.87505 15.2317 9.0762 15.0839 9.22522Z"
          fill="#F2F2F2"/>
</svg>
